<svg class="css-la-logo" xmlns="http://www.w3.org/2000/svg" xmlns:xlink="http://www.w3.org/1999/xlink" width="150" height="210.12">
  <defs>
    <linearGradient id="a" x1="52.65" y1="127.95" x2="52.65" y2="91.8" gradientUnits="userSpaceOnUse">
      <stop offset=".39" stop-color="#d1d3d4" stop-opacity="0"/>
      <stop offset="1" stop-color="#d1d3d4"/>
    </linearGradient>
    <linearGradient id="c" x1="97.82" y1="109.92" x2="97.82" y2="72.35" xlink:href="#a"/>
    <linearGradient id="b" x1="30.91" y1="144.07" x2="117.73" y2="144.07" gradientUnits="userSpaceOnUse">
      <stop offset="0" stop-color="#e8e7e5"/>
      <stop offset="1" stop-color="#fff"/>
    </linearGradient>
    <linearGradient id="d" x1="26.92" y1="81.55" x2="121.18" y2="81.55" xlink:href="#b"/>
  </defs>
  <path fill="#2062af" d="M135.94 193.71L75 210.12l-60.94-16.41L0 41.37h150l-14.06 152.34z"/>
  <path fill="#3c9cd7" d="M74.51 53.71v143.32l.14.04 49.32-13.28 11.38-130.08H74.51z"/>
  <path fill="#fff" d="M74.46 91.8l-43.62 18.17 1.45 17.98 42.17-18.03 44.86-19.18 1.86-18.39L74.46 91.8z"/>
  <path fill="url(#a)" d="M30.84 109.97l1.45 17.98 42.17-18.03V91.8l-43.62 18.17z"/>
  <path fill="url(#c)" d="M121.18 72.35L74.46 91.8v18.12l44.86-19.18 1.86-18.39z"/>
  <path fill="url(#b)" d="M30.91 109.97l1.45 17.98 64.7.21-1.45 23.97-21.29 6-20.46-5.17-1.24-14.88H33.6l2.48 28.73 38.45 11.37 38.24-11.16 4.96-57.05H30.91z"/>
  <g opacity=".05" fill="#231f20">
    <path d="M74.46 109.97H30.84l1.45 17.98 42.17.14v-18.12zM74.46 158.07l-.21.06-20.46-5.17-1.24-14.88H33.53l2.48 28.73 38.45 11.37v-20.11z"/>
  </g>
  <path fill="url(#d)" d="M26.92 72.35h94.26l-1.86 18.39H29.19l-2.27-18.39z"/>
  <path fill="#231f20" opacity=".05" d="M74.46 72.35H26.92l2.27 18.39h45.27V72.35z"/>
  <g fill="#231f20">
    <path d="M26.02 18.99V9.92h13.23V0H16.1v28.04h23.15v-9.05H26.02zM63.05 9.92h9.25V0H49.15v9.92c3.1 3.1 4.71 4.58 9.19 9.06h-9.19V28H72.3v-9zM95.87 9.92h9.25V0H82v9.92c3.1 3.1 4.72 4.58 9.2 9.06H82V28h23.16v-9z"/>
    <text transform="translate(108.06 27.83)" font-size="26.84" font-family="AktivGrotesk-Black, Aktiv Grotesk" font-weight="800">
      .<tspan x="7.73" y="0" fill="#ff00a5" letter-spacing="0em">l</tspan><tspan x="16.02" y="0" fill="#ff00a5">a</tspan>
    </text>
  </g>
</svg>
